<svg xmlns="http://www.w3.org/2000/svg" width="62" height="14" viewBox="0 0 62 14" fill="none">
    <g clip-path="url(#clip0_17248_2675)">
    <path d="M7.67393 14H-0.677002V0H7.67393V2.43857H2.39253V5.50855H7.3128V7.94712H2.39253V11.5614H7.67393V14Z" fill="white"/>
    <path d="M22.7506 0L17.8078 14H14.4674L9.54712 0H12.6618L15.3928 8.31726C15.4379 8.46967 15.5056 8.73095 15.6185 9.12286C15.7313 9.51477 15.8442 9.90669 15.9345 10.3421C16.0473 10.7776 16.115 11.126 16.1602 11.409C16.2053 11.126 16.273 10.7776 16.3633 10.3421C16.4536 9.92846 16.5664 9.51477 16.6567 9.12286C16.7695 8.73095 16.8373 8.46967 16.8824 8.31726L19.6359 0L22.7506 0Z" fill="white"/>
    <path d="M32.9298 14H24.5789V0H32.9298V2.43857H27.6484V5.50855H32.5687V7.94712H27.6484V11.5614H32.9298V14Z" fill="white"/>
    <path d="M48.819 14H44.9144L38.5948 3.41835H38.5045C38.5271 4.09331 38.5722 4.7465 38.5948 5.42146C38.6399 6.09642 38.6625 6.74961 38.6851 7.42457V14H35.9541V0H39.8362L46.1332 10.4728H46.2009C46.1783 9.84137 46.1558 9.18818 46.1106 8.55677C46.0881 7.92535 46.0655 7.27216 46.0429 6.61897V0H48.7965V14H48.819Z" fill="white"/>
    <path d="M58.0503 14H54.9808V2.46034H51.031V0H61.9775V2.46034H58.0277V13.9782L58.0503 14Z" fill="white"/>
    </g>
    <defs>
    <clipPath id="clip0_17248_2675">
    <rect width="62" height="14" fill="white"/>
    </clipPath>
    </defs>
    </svg>