<svg xmlns="http://www.w3.org/2000/svg" width="32" height="32" viewBox="0 0 32 32" fill="none">
  <path d="M20.3898 16C20.3898 13.5754 18.4244 11.61 15.9998 11.61C13.5753 11.61 11.6099 13.5754 11.6099 16C11.6099 18.4245 13.5753 20.3899 15.9998 20.3899C18.4244 20.3899 20.3898 18.4245 20.3898 16ZM22.2765 16C22.2765 19.4665 19.4663 22.2767 15.9998 22.2767C12.5333 22.2767 9.72314 19.4665 9.72314 16C9.72314 12.5335 12.5333 9.72327 15.9998 9.72327C19.4663 9.72327 22.2765 12.5335 22.2765 16Z" fill="#051766"/>
  <path d="M15.0565 29.3333V26.6666C15.0565 26.1456 15.4788 25.7233 15.9998 25.7233C16.5208 25.7233 16.9432 26.1456 16.9432 26.6666V29.3333C16.9432 29.8543 16.5208 30.2767 15.9998 30.2767C15.4788 30.2767 15.0565 29.8543 15.0565 29.3333ZM7.24007 26.0937C6.87167 26.462 6.27445 26.4621 5.90609 26.0937C5.53772 25.7253 5.53778 25.1281 5.90609 24.7597L7.24007 26.0937ZM26.0936 24.7597C26.4619 25.1281 26.462 25.7253 26.0936 26.0937C25.7252 26.4621 25.128 26.462 24.7596 26.0937L26.0936 24.7597ZM9.12028 24.2135L7.24007 26.0937L5.90609 24.7597L7.7863 22.8795L9.12028 24.2135ZM26.0936 24.7597L24.7596 26.0937L22.8794 24.2135L24.2134 22.8795L26.0936 24.7597ZM7.7863 22.8795C8.1547 22.5112 8.75192 22.5112 9.12028 22.8795C9.48864 23.2479 9.48856 23.8451 9.12028 24.2135L7.7863 22.8795ZM22.8794 22.8795C23.2478 22.5112 23.845 22.5112 24.2134 22.8795L22.8794 24.2135C22.5111 23.8451 22.511 23.2479 22.8794 22.8795ZM5.33317 15.0566C5.85416 15.0566 6.27653 15.479 6.27653 16C6.27653 16.4884 5.90524 16.8898 5.42952 16.9381L5.33317 16.9433H2.6665C2.14552 16.9433 1.72314 16.5209 1.72314 16C1.72314 15.479 2.14552 15.0566 2.6665 15.0566H5.33317ZM29.3332 15.0566C29.8542 15.0566 30.2765 15.479 30.2765 16C30.2765 16.5209 29.8542 16.9433 29.3332 16.9433H26.6665C26.1455 16.9433 25.7231 16.5209 25.7231 16C25.7231 15.479 26.1455 15.0566 26.6665 15.0566H29.3332ZM9.12028 7.78642C9.48856 8.15482 9.48864 8.75205 9.12028 9.1204C8.75192 9.48876 8.1547 9.48868 7.7863 9.1204L9.12028 7.78642ZM24.2134 9.1204C23.845 9.48868 23.2478 9.48876 22.8794 9.1204C22.511 8.75205 22.5111 8.15482 22.8794 7.78642L24.2134 9.1204ZM9.12028 7.78642L7.7863 9.1204L5.90609 7.24019L7.24007 5.90621L9.12028 7.78642ZM26.0936 7.24019L24.2134 9.1204L22.8794 7.78642L24.7596 5.90621L26.0936 7.24019ZM5.90609 5.90621C6.27445 5.53785 6.87167 5.53791 7.24007 5.90621L5.90609 7.24019C5.53778 6.87179 5.53772 6.27457 5.90609 5.90621ZM24.7596 5.90621C25.128 5.53791 25.7252 5.53785 26.0936 5.90621C26.462 6.27457 26.4619 6.87179 26.0936 7.24019L24.7596 5.90621ZM15.0565 5.33329V2.66663C15.0565 2.14564 15.4788 1.72327 15.9998 1.72327C16.5208 1.72327 16.9432 2.14564 16.9432 2.66663V5.33329C16.9432 5.85428 16.5208 6.27665 15.9998 6.27665C15.4788 6.27665 15.0565 5.85428 15.0565 5.33329Z" fill="#051766"/>
</svg>