<svg width="16" height="8" viewBox="0 0 16 8" fill="none" xmlns="http://www.w3.org/2000/svg">
<path d="M2.28863 1.72H3.08063V1.936C3.08063 3.112 2.60063 4.2 1.44063 4.632L0.952625 3.848C1.88863 3.488 2.28863 2.72 2.28863 1.936V1.72ZM2.50463 1.72H3.28863V1.936C3.28863 2.672 3.69663 3.384 4.62463 3.712L4.15263 4.496C2.98463 4.096 2.50463 3.064 2.50463 1.936V1.72ZM1.16063 1.112H4.40863V1.944H1.16063V1.112ZM2.28863 0.392H3.28863V1.536H2.28863V0.392ZM6.26463 0.312H7.27263V5.32H6.26463V0.312ZM5.40863 2.064H6.58463V2.928H5.40863V2.064ZM4.72063 0.424H5.71263V4.672H4.72063V0.424ZM4.19263 4.976H5.09663V5.088C5.09663 6.376 4.07263 7.424 2.21663 7.688L1.84063 6.864C3.44063 6.656 4.19263 5.848 4.19263 5.088V4.976ZM4.34463 4.976H5.24863V5.088C5.24863 5.848 6.00863 6.656 7.60063 6.864L7.22463 7.688C5.36863 7.424 4.34463 6.376 4.34463 5.088V4.976ZM9.176 0.512H10.224V1.136H13.112V0.512H14.168V3.32H9.176V0.512ZM10.224 1.936V2.488H13.112V1.936H10.224ZM8.32 3.912H15.016V4.752H8.32V3.912ZM11.136 2.984H12.192V4.096H11.136V2.984ZM11.128 5.12H12.04V5.248C12.04 6.488 11.008 7.448 9.136 7.688L8.768 6.872C10.4 6.696 11.128 5.96 11.128 5.248V5.12ZM11.296 5.12H12.208V5.248C12.208 5.96 12.928 6.696 14.568 6.872L14.2 7.688C12.32 7.448 11.296 6.488 11.296 5.248V5.12Z" fill="white"/>
</svg>
