<svg width="21" height="7" viewBox="0 0 21 7" fill="none" xmlns="http://www.w3.org/2000/svg">
<path d="M2.74166 1.216C2.51232 1.216 2.30699 1.26133 2.12566 1.352C1.94966 1.44267 1.80032 1.57333 1.67766 1.744C1.55499 1.90933 1.46166 2.112 1.39766 2.352C1.33899 2.592 1.30966 2.86133 1.30966 3.16C1.30966 3.56533 1.35766 3.912 1.45366 4.2C1.55499 4.48267 1.71232 4.69867 1.92566 4.848C2.13899 4.99733 2.41099 5.072 2.74166 5.072C2.97632 5.072 3.20832 5.04533 3.43766 4.992C3.67232 4.93867 3.92566 4.864 4.19766 4.768V5.784C3.94699 5.88533 3.69899 5.96 3.45366 6.008C3.20832 6.056 2.93366 6.08 2.62966 6.08C2.04299 6.08 1.55766 5.96 1.17366 5.72C0.79499 5.47467 0.51499 5.13333 0.333656 4.696C0.152323 4.25333 0.0616563 3.73867 0.0616563 3.152C0.0616563 2.72 0.120323 2.32533 0.237656 1.968C0.35499 1.60533 0.525656 1.29333 0.749656 1.032C0.97899 0.770666 1.25899 0.568 1.58966 0.424C1.92566 0.28 2.30966 0.208 2.74166 0.208C3.02432 0.208 3.30699 0.245333 3.58966 0.32C3.87766 0.389333 4.15232 0.485333 4.41366 0.608L4.02166 1.592C3.80832 1.49067 3.59232 1.40267 3.37366 1.328C3.16032 1.25333 2.94966 1.216 2.74166 1.216ZM10.0914 6H8.88341V3.536H6.61941V6H5.41141V0.288H6.61941V2.528H8.88341V0.288H10.0914V6ZM15.0246 6L14.6086 4.64H12.5286L12.1126 6H10.8086L12.8246 0.264H14.3046L16.3286 6H15.0246ZM13.9046 2.296C13.8779 2.20533 13.8433 2.09067 13.8006 1.952C13.7579 1.81333 13.7153 1.672 13.6726 1.528C13.6299 1.384 13.5953 1.25867 13.5686 1.152C13.5419 1.25867 13.5046 1.392 13.4566 1.552C13.4139 1.70667 13.3713 1.856 13.3286 2C13.2913 2.13867 13.2619 2.23733 13.2406 2.296L12.8326 3.624H14.3206L13.9046 2.296ZM18.6895 6H17.4815V1.296H15.9295V0.288H20.2415V1.296H18.6895V6Z" fill="white"/>
</svg>
