<svg width="22" height="8" viewBox="0 0 22 8" fill="none" xmlns="http://www.w3.org/2000/svg">
<path d="M5.36094 0.296H6.43294V7.728H5.36094V0.296ZM2.44094 0.816C3.56094 0.816 4.38494 1.84 4.38494 3.456C4.38494 5.088 3.56094 6.112 2.44094 6.112C1.32094 6.112 0.496938 5.088 0.496938 3.456C0.496938 1.84 1.32094 0.816 2.44094 0.816ZM2.44094 1.784C1.88894 1.784 1.51294 2.368 1.51294 3.456C1.51294 4.56 1.88894 5.152 2.44094 5.152C2.99294 5.152 3.36094 4.56 3.36094 3.456C3.36094 2.368 2.99294 1.784 2.44094 1.784ZM12.9443 0.304H13.9523V5.896H12.9443V0.304ZM10.5523 2.352H11.7283V3.2H10.5523V2.352ZM11.4563 0.424H12.4563V5.672H11.4563V0.424ZM7.89631 0.872H8.89631V1.992H9.84031V0.872H10.8323V4.616H7.89631V0.872ZM8.89631 2.808V3.776H9.84031V2.808H8.89631ZM8.96831 6.736H14.1443V7.584H8.96831V6.736ZM8.96831 5.168H10.0323V7.24H8.96831V5.168ZM15.7917 4.12H20.9997V4.952H15.7917V4.12ZM15.0077 6H21.7117V6.864H15.0077V6ZM15.7917 0.84H20.9357V1.696H16.8717V4.352H15.7917V0.84ZM16.5437 2.472H20.7677V3.296H16.5437V2.472Z" fill="white"/>
</svg>
