<svg xmlns="http://www.w3.org/2000/svg" width="96" height="96" viewBox="0 0 96 96" fill="none">
  <g clip-path="url(#clip0_9_14538)">
    <path d="M73.6093 62.8458C73.0914 61.8507 71.9948 61.0281 71.0606 60.754C70.106 60.4493 69.4257 60.4493 68.7657 60.4697C66.8972 60.5306 38.3938 65.7906 38.3938 65.7906L40.4754 67.4051C42.9734 69.3345 45.5831 70.1265 48.0303 69.6899L68.7352 66.0343C68.7352 66.1561 66.7145 79.7834 66.7145 79.7834H32.1082L30.7678 64.9782L50.1729 57.0171L62.4801 54.6512C63.6174 54.3973 64.8968 53.3412 65.3538 52.3055C65.8412 51.29 65.9326 50.4371 65.9732 49.7466C66.0138 49.0459 65.9732 43.5625 65.9732 43.5625C65.9427 42.9736 65.9935 42.3135 65.6178 41.1762C65.4147 40.6076 64.9984 39.8968 64.3688 39.3789C63.7291 38.861 63.0995 38.6478 62.5715 38.5056C61.5357 38.2924 60.9264 38.333 60.1344 38.3838L28.7673 42.9329L27.2848 24.4011V16.2268H35.5708C35.6216 17.4352 35.5708 23.6903 35.5708 25.6095C35.5708 27.6607 35.4083 29.854 36.241 31.7732C37.1752 33.9463 38.7288 34.9617 40.2723 35.8858L42.4758 37.1957C42.4758 37.1957 41.1456 28.8792 41.105 27.8232C41.105 26.0867 41.1964 16.6431 41.0238 15.3637C40.7902 13.6476 39.856 12.0533 38.2516 11.2816C37.7845 11.048 37.3174 10.8957 36.8706 10.8145C36.373 10.7231 35.581 10.6926 35.581 10.6926H27.2543L26.5943 10.7332C26.1374 10.784 25.6601 10.8653 25.1524 11.0582C24.1471 11.4034 23.0606 12.2463 22.5224 13.2414C21.974 14.1553 21.7303 15.252 21.7709 16.308C21.7709 16.2573 21.7709 24.462 21.7709 24.6245L23.7409 49.249L60.4593 43.9179V49.4318L48.6091 51.7064L24.9188 61.4242L27.0817 85.3175H71.4972C71.7815 83.4187 73.2742 73.2744 73.7413 70.0961C74.0866 67.7402 74.838 65.0798 73.6296 62.8458H73.6093Z" fill="#051766" />
  </g>
  <defs>
    <clipPath id="clip0_9_14538">
      <rect width="96" height="96" fill="white"/>
    </clipPath>
  </defs>
</svg>