<svg xmlns="http://www.w3.org/2000/svg" width="96" height="96" viewBox="0 0 96 96" fill="none">
  <g clip-path="url(#clip0_1742_80372)">
    <path d="M86.4507 47.6685C86.43 47.5648 86.4093 47.4506 86.3887 47.3469L86.3576 47.1706C86.3473 47.098 86.3266 47.0149 86.306 46.9423C86.2233 46.6518 86.1199 46.3925 86.0062 46.1228L85.9236 45.9256C85.3345 44.6704 84.6007 43.7887 83.6809 42.855C82.1513 41.3508 80.3531 40.1371 78.1828 39.1412C76.0642 38.1764 73.8939 37.6369 71.7546 37.5124C70.9381 37.4709 61.4198 37.4399 61.4198 37.4399L46.9097 22.3874C46.2069 21.6819 45.5352 21.0802 44.8841 20.5512C43.2202 19.2129 41.5563 18.2689 39.8097 17.688C39.2619 17.5012 38.7142 17.3767 38.2905 17.2834L37.4637 17.1485L24.3488 15.7584L36.2648 37.8755L32.2239 37.8341C32.2239 37.8341 26.8809 31.4229 26.3228 30.8835C25.7027 30.2922 24.9276 29.7839 24.1628 29.4727C22.5712 28.8191 21.0624 28.8502 19.7912 28.9228L9.53906 29.3378L16.8147 48.0108L9.53906 66.6838L19.7809 67.0988C21.0624 67.1818 22.5609 67.2129 24.1525 66.5489C24.9276 66.2377 25.6923 65.7294 26.3124 65.1381C26.8705 64.609 32.1723 58.2084 32.1723 58.2084L36.2545 58.1565L24.3385 80.2633L37.474 78.8627L38.2905 78.7279C38.9105 78.593 39.3756 78.4685 39.7994 78.3233C41.5459 77.7423 43.2098 76.7984 44.8841 75.4602C45.5455 74.9311 61.4198 58.5715 61.4198 58.5715C61.4198 58.5715 70.9381 58.5507 71.7546 58.4988C73.8939 58.3847 76.0539 57.8349 78.1828 56.8701C80.3635 55.8846 82.1617 54.6709 83.6809 53.1563C84.6007 52.2227 85.3345 51.3408 85.9236 50.0648L85.9959 49.8782C86.0993 49.6084 86.2026 49.349 86.2853 49.0586C86.306 48.986 86.3266 48.903 86.337 48.8304L86.368 48.654C86.3887 48.5502 86.4093 48.4362 86.43 48.3325C86.4713 48.1146 86.4713 47.8967 86.43 47.6789L86.4507 47.6685ZM23.3773 60.1068L23.243 60.2832C22.7779 60.9368 22.3749 61.3206 22.0441 61.4451C21.7858 61.5592 21.2381 61.6733 20.0909 61.5799L17.5072 61.4761L22.8813 48.0004L17.5072 34.5248L20.0909 34.421C21.2277 34.3277 21.7754 34.4418 22.0441 34.5559C22.3645 34.67 22.7676 35.0642 23.2327 35.7178L27.9763 41.3509C28.0177 41.4027 28.2244 41.6309 28.3381 41.7347C28.6068 42.0044 28.9065 42.2429 29.2268 42.44C29.8573 42.8446 30.591 43.1247 31.3455 43.2492C31.9449 43.3218 32.2549 43.3218 32.5133 43.3218C32.627 43.3218 32.7407 43.3218 32.875 43.3218L45.5145 43.4774L34.1772 22.3666L36.8333 22.6052L37.226 22.6779C37.4843 22.7401 37.7841 22.8023 38.0631 22.906C39.1689 23.2691 40.3058 23.9227 41.4322 24.8356C41.9387 25.2402 42.4451 25.6966 43.0238 26.2776L59.0738 42.9276C59.0738 42.9276 70.9484 42.9588 71.4238 42.9899C72.8707 43.0625 74.4313 43.4671 75.9298 44.1414C77.4283 44.8157 78.8029 45.7286 79.8157 46.7452C80.1361 47.0668 80.3118 47.5026 80.3118 47.9694C80.3118 48.4362 80.1361 48.8719 79.7951 49.2038C78.8029 50.1997 77.4181 51.123 75.9195 51.7973C74.421 52.482 72.8604 52.8762 71.4032 52.9488C70.9278 52.9799 59.0531 53.0111 59.0531 53.0111C59.0531 53.0111 41.918 70.6985 41.4116 71.1031C40.2748 72.016 39.1482 72.6695 38.0321 73.043C37.7634 73.1467 37.4637 73.209 37.195 73.2712L36.8229 73.3439L34.1359 73.5825L45.4732 52.4716L32.8234 52.6273C32.6994 52.6273 32.596 52.6273 32.4823 52.6273C32.2343 52.6273 31.9139 52.6272 31.3042 52.6998C30.56 52.8139 29.8263 53.0941 29.1958 53.509C28.8755 53.7165 28.5758 53.955 28.3174 54.2144C28.2037 54.3181 27.997 54.5463 27.9557 54.6086L23.3463 60.0756L23.3773 60.1068Z" fill="#051766" />
  </g>
  <defs>
    <clipPath id="clip0_1742_80372">
      <rect width="96" height="96" fill="white"/>
    </clipPath>
  </defs>
</svg>