<svg width="44" height="59" viewBox="0 0 44 59" xmlns="http://www.w3.org/2000/svg">
    <g fill-rule="nonzero" fill="none">
        <g fill="#4DC8E9">
            <path d="M19.798 51.333h-.72c-.649 0-1.176.486-1.176 1.084v3.75h-.447c-.747 0-1.355.56-1.355 1.25 0 .689.608 1.25 1.355 1.25h2.163c.747 0 1.355-.561 1.355-1.25 0-.057-.006-.111-.014-.165.009-.055.014-.111.014-.169v-4.666c0-.598-.526-1.084-1.175-1.084zM25.745 56.167h-.447v-3.75c0-.598-.527-1.084-1.175-1.084h-.721c-.648 0-1.175.486-1.175 1.084v4.666c0 .058.005.115.014.17a1.047 1.047 0 0 0-.014.164c0 .689.608 1.25 1.355 1.25h2.163c.747 0 1.355-.561 1.355-1.25 0-.69-.608-1.25-1.355-1.25z"/>
        </g>
        <path d="M11.837 48.583c-.289 0-.587-.024-.895-.076-.556-.094-.934-.65-.846-1.24.09-.59.607-.994 1.168-.898 2.782.472 4.196-2.632 4.21-2.664.24-.54.847-.773 1.357-.519.51.255.728.9.489 1.44-.645 1.453-2.56 3.957-5.483 3.957zM32.163 48.583c.289 0 .587-.024.895-.076.556-.094.934-.65.846-1.24-.09-.59-.607-.994-1.168-.898-2.782.472-4.196-2.632-4.21-2.664-.24-.54-.847-.773-1.357-.519-.51.255-.728.9-.489 1.44.645 1.453 2.56 3.957 5.483 3.957z" fill="#4DC8E9"/>
        <path d="M16.205 49.036c.07.281.14.561.208.843l.04.168c.114.472.299 1.077.724 1.56.284.32.643.6 1.068.83.89.484 1.992.73 3.274.73.119 0 .238-.003.358-.008 1.234-.056 2.362-.382 3.264-.943.434-.27.79-.592 1.059-.958.242-.33.415-.717.56-1.255.057-.21.104-.423.151-.634.028-.125.057-.247.086-.37l.03-.127.073-.289c-.208.068-.414.13-.618.19-4.493 1.302-8.018.605-9.76.053-.242-.077-.45-.15-.622-.216l.105.426" fill="#EAEAEA"/>
        <path d="m27.507 49.52.017-.01-.016.004-.001.007z" fill="#DBDBDB"/>
        <path d="M16.171 49.555c.592.388 5.434 1.746 10.784-.031l.017-.028 1.436-6.05a.305.305 0 0 0-.05-.25.27.27 0 0 0-.217-.113h-13.2a.271.271 0 0 0-.217.113.305.305 0 0 0-.049.25l1.466 6.069.03.04z" fill="#D6D6D6"/>
        <path d="M25.667 38.5c0 .506-.329.917-.734.917h-5.866c-.405 0-.734-.411-.734-.917s.329-.917.734-.917h5.866c.405 0 .734.411.734.917z" fill="#4D4D4D"/>
        <path fill="#4DC8E9" d="M20.167 10.083h2.75v2.75h-2.75z"/>
        <ellipse fill="#4DC8E9" cx="22" cy="5.042" rx="5.5" ry="5.042"/>
        <path d="M25.667 5.5a3.666 3.666 0 1 1-7.333 0 3.666 3.666 0 0 1 7.333 0" fill="#FFF"/>
        <path d="M23.086 3.879c.887.266 1.535 1.069 1.535 2.018 0 .138-.015.274-.04.405l-.004.018a2.38 2.38 0 0 1-.446 1.009l-.004.004a2.77 2.77 0 0 0 .623-1.748c0-1.566-1.306-2.835-2.919-2.835-.734 0-1.405.263-1.918.698l-.006.005a1.94 1.94 0 0 0-.534 2.13l.004.01c.202.433.651.731 1.172.731.71 0 1.287-.558 1.287-1.248l-.003-.539c0-.247.142-.46.352-.572l.001-.002a1.165 1.165 0 0 1 .899-.084h.001" fill="#ED212F"/>
        <path d="m24.626 5.397-.004-.01a1.286 1.286 0 0 0-1.171-.74c-.712 0-1.287.565-1.287 1.26l.003.544c0 .25-.143.466-.351.577l-.003.002a1.144 1.144 0 0 1-.897.087l-.002-.001a2.136 2.136 0 0 1-1.535-2.037c0-.14.013-.275.04-.408l.002-.019c.066-.362.215-.696.426-.985-.015.019-.03.037-.044.057-.021.028-.044.057-.064.087-.047.069-.09.138-.131.21l-.036.074a2.111 2.111 0 0 0-.08.16l-.037.092a2.3 2.3 0 0 0-.057.153c-.012.033-.021.065-.031.098-.016.054-.03.108-.043.162l-.022.096c-.011.06-.02.123-.028.186-.003.026-.008.052-.01.08-.008.09-.014.18-.014.272 0 .093.006.183.014.274l.002.027c.01.087.024.174.041.26l.006.03a3.062 3.062 0 0 0 .07.261 2.912 2.912 0 0 0 2.784 2.004c.777 0 1.481-.3 2.004-.785.356-.359.579-.846.579-1.386 0-.24-.044-.47-.124-.682" fill="#03539B"/>
        <g fill="#4DC8E9">
            <path d="m6.548 38.856-.879-20.881.04-.01-.052-.274-.051-.274c-3.432.642-5.834 3.948-5.589 7.692L.522 32.8c.232 3.534 2.702 6.254 6.008 6.615l.03-.277.03-.277-.042-.006zM38.394 17.417l-.104.548c.014.003.027.008.04.01l-.878 20.881-.043.007.061.554c3.306-.362 5.776-3.082 6.008-6.616l.505-7.692c.245-3.743-2.158-7.05-5.59-7.692z"/>
        </g>
        <path d="M20.522 11.917c-11.066.225-16.856 2.58-16.855 4.803l1.219 23.829C5.099 42.933 13.635 44 21.999 44c8.365 0 16.9-1.067 17.115-3.462l1.22-23.843c0-2.205-5.78-4.55-16.842-4.778h-2.97z" fill="#EAEAEA"/>
        <path d="M34.833 35.17c0 3.358-2.76 6.08-6.167 6.08H13.501c-3.407 0-6.168-2.722-6.168-6.08v-7.09c0-3.358 2.761-6.08 6.168-6.08h15.165c3.406 0 6.167 2.722 6.167 6.08v7.09z" fill="#FFF"/>
        <g fill="#000">
            <path d="M16.197 29.792c0 1.265-.753 2.291-1.682 2.291-.929 0-1.682-1.026-1.682-2.291 0-1.266.753-2.292 1.682-2.292.93 0 1.682 1.026 1.682 2.292zM31.167 29.792c0 1.265-.753 2.291-1.682 2.291-.93 0-1.682-1.026-1.682-2.291 0-1.266.753-2.292 1.682-2.292.929 0 1.682 1.026 1.682 2.292z"/>
        </g>
        <path d="M11.917 33c0 1.012-1.231 1.833-2.75 1.833-1.52 0-2.75-.82-2.75-1.833s1.23-1.833 2.75-1.833c1.519 0 2.75.82 2.75 1.833zM37.583 33c0 1.012-1.23 1.833-2.75 1.833-1.518 0-2.75-.82-2.75-1.833s1.232-1.833 2.75-1.833c1.52 0 2.75.82 2.75 1.833z" fill="#FF7BAC" opacity=".4"/>
        <path d="M21.984 36.667c-1.143 0-2.003-.347-2.628-1.062a.45.45 0 0 1 .007-.588.348.348 0 0 1 .53.008c.483.552 1.147.809 2.091.809.98 0 1.706-.291 2.098-.842a.35.35 0 0 1 .526-.069c.162.143.19.405.061.585-.376.529-1.146 1.159-2.685 1.159z" fill="#3F2F37"/>
    </g>
</svg>
