<svg xmlns="http://www.w3.org/2000/svg" width="32" height="32" viewBox="0 0 32 32" fill="none">
  <path d="M12.7094 10.3333C12.7094 8.73382 13.1372 7.17856 13.9295 5.82027C12.6136 6.08791 11.3552 6.60792 10.2277 7.36129C8.51904 8.50296 7.18724 10.1255 6.40084 12.024C5.61451 13.9225 5.40886 16.0113 5.8097 18.0267C6.2106 20.0421 7.19973 21.8939 8.65279 23.347C10.1059 24.8 11.9576 25.7892 13.9731 26.1901C15.9885 26.5909 18.0773 26.3853 19.9757 25.5989C21.8742 24.8125 23.4968 23.4807 24.6385 21.7721C25.3919 20.6444 25.9112 19.3857 26.1788 18.0696C24.8206 18.8618 23.2659 19.2903 21.6665 19.2903C19.2909 19.2903 17.0123 18.3471 15.3325 16.6673C13.6527 14.9875 12.7094 12.7089 12.7094 10.3333ZM14.5962 10.3333C14.5962 12.2085 15.3411 14.0067 16.6671 15.3326C17.9931 16.6586 19.7912 17.4036 21.6665 17.4036C23.5417 17.4036 25.3398 16.6586 26.6658 15.3326C26.9355 15.0629 27.3414 14.9824 27.6938 15.1282C28.0463 15.2742 28.2765 15.6184 28.2765 16C28.2765 18.428 27.5564 20.8014 26.2075 22.8203C24.8585 24.8392 22.941 26.4132 20.6977 27.3424C18.4545 28.2715 15.986 28.5147 13.6046 28.041C11.2232 27.5673 9.03571 26.3979 7.31881 24.681C5.60191 22.964 4.43249 20.7766 3.95878 18.3951C3.4851 16.0138 3.72824 13.5452 4.65735 11.302C5.58654 9.05878 7.1606 7.14125 9.17949 5.79228C11.1983 4.44337 13.5718 3.72327 15.9998 3.72327C16.3813 3.72327 16.7255 3.95345 16.8715 4.30595C17.0174 4.65837 16.9368 5.06424 16.6671 5.33394C15.3411 6.65993 14.5962 8.45807 14.5962 10.3333Z" fill="white"/>
</svg>