<svg xmlns="http://www.w3.org/2000/svg" width="96" height="96" viewBox="0 0 96 96" fill="none">
  <path d="M77.6407 61.6271C76.3207 58.9768 74.5538 56.8444 71.0911 54.4885C63.9323 49.6246 54.4988 48.599 52.1937 48.3959C52.5898 48.599 53.128 48.863 53.2803 48.9442C54.8237 49.7464 58.6621 51.9499 59.0074 52.153C67.1106 56.7327 71.9746 60.2563 72.8682 64.7039C72.9189 64.9476 72.9393 65.2015 72.9393 65.5264V77.1025H23.0607V65.6787C23.0607 65.2827 23.1013 64.9374 23.1825 64.6125C23.9035 61.8607 25.711 59.515 28.2801 58.002L55.3315 41.3487C60.4087 38.2922 63.1808 32.7276 62.5716 26.8279C61.7795 19.1105 55.3416 13.3428 47.5735 13.3428C47.5024 13.3428 47.4415 13.3428 47.3704 13.3428C40.4349 13.4342 32.7175 19.1714 32.7175 27.2645C32.7175 30.1077 33.0019 33.4079 36.3325 36.7183C38.1502 38.5156 41.1356 39.5107 44.3241 39.3787L45.2684 39.3381L44.4865 38.8101C42.019 37.1245 37.8354 33.0728 37.8354 28.5643C37.8354 23.5175 41.0645 19.6284 45.8777 18.8769C50.9447 18.0849 55.7072 21.1414 56.946 25.985C57.9919 30.0773 56.3774 34.2101 52.8335 36.5152L25.4064 53.0974C21.6594 55.3212 18.8567 59.0377 17.7296 63.3026C17.5874 63.8306 17.5164 64.9273 17.5164 65.5061V82.6468H78.4937V65.3538C78.4937 65.2522 78.5343 64.6531 78.4328 63.922C78.3211 63.13 78.0165 62.3582 77.6407 61.6068V61.6271Z" fill="#051766" />
</svg>