<svg width="25" height="6" viewBox="0 0 25 6" fill="none" xmlns="http://www.w3.org/2000/svg">
<path d="M3.35956 6H0.0715625V0.288H3.35956V1.28H1.27956V2.536H3.21556V3.528H1.27956V5H3.35956V6ZM9.02813 0.288L7.08413 6H5.76413L3.82812 0.288H5.05213L6.12413 3.688C6.14546 3.74667 6.17479 3.856 6.21213 4.016C6.25479 4.17067 6.29746 4.336 6.34013 4.512C6.38279 4.68267 6.41213 4.82667 6.42813 4.944C6.44413 4.82667 6.47079 4.68267 6.50813 4.512C6.55079 4.336 6.59346 4.17067 6.63613 4.016C6.67879 3.856 6.70813 3.74667 6.72413 3.688L7.80413 0.288H9.02813ZM13.0393 6H9.75125V0.288H13.0393V1.28H10.9593V2.536H12.8953V3.528H10.9593V5H13.0393V6ZM19.2918 6H17.7558L15.2678 1.68H15.2358C15.2411 1.81333 15.2465 1.94933 15.2518 2.088C15.2571 2.22133 15.2625 2.35733 15.2678 2.496C15.2785 2.62933 15.2865 2.76533 15.2918 2.904C15.2971 3.03733 15.3025 3.17333 15.3078 3.312V6H14.2278V0.288H15.7558L18.2358 4.568H18.2598C18.2545 4.43467 18.2491 4.304 18.2438 4.176C18.2385 4.04267 18.2331 3.912 18.2278 3.784C18.2278 3.65067 18.2251 3.52 18.2198 3.392C18.2145 3.25867 18.2091 3.12533 18.2038 2.992V0.288H19.2918V6ZM22.9356 6H21.7276V1.296H20.1756V0.288H24.4876V1.296H22.9356V6Z" fill="white"/>
</svg>
