<svg width="32" height="49" viewBox="0 0 32 49" xmlns="http://www.w3.org/2000/svg">
    <g fill="none" fill-rule="evenodd">
        <path d="M16 16.923a4.923 4.923 0 1 1-9.846 0 4.923 4.923 0 0 1 9.846 0M25.846 16.923a4.923 4.923 0 1 1-9.846 0 4.923 4.923 0 0 1 9.846 0" fill="#CEE4FD" fill-rule="nonzero"/>
        <path d="M15.692 15.077a2.681 2.681 0 0 0-2.681 2.693v.782h5.363v-.782a2.681 2.681 0 0 0-2.682-2.693zM2.462 26.59v18.862c0 1.883 1.18 3.399 2.646 3.399h21.169c1.466 0 2.646-1.516 2.646-3.4V26.59H2.462z" fill="#B0D1F4" fill-rule="nonzero"/>
        <path d="M2.667 18.154h26.666A2.656 2.656 0 0 1 32 20.81v3.303a2.656 2.656 0 0 1-2.667 2.656H2.667A2.656 2.656 0 0 1 0 24.113V20.81a2.656 2.656 0 0 1 2.667-2.656z" fill="#00A1FF" fill-rule="nonzero"/>
        <path fill="#3D6CF2" fill-rule="nonzero" d="M12.923 18.957V48.87h5.539V18.957z"/>
        <path fill="#FFF" fill-rule="nonzero" d="M12.923 18.154v8.615h5.539v-8.615z"/>
        <text font-family="NotoSansCJKkr-Bold, Noto Sans CJK KR" font-size="8" font-weight="bold" fill="#FFF" transform="translate(0 -1)">
                            <tspan x="3.612" y="9">EVENT</tspan>
                        </text>
    </g>
</svg>
