<?xml version="1.0" encoding="UTF-8"?>
<svg width="32px" height="24px" viewBox="0 0 32 24" version="1.1" xmlns="http://www.w3.org/2000/svg" xmlns:xlink="http://www.w3.org/1999/xlink">
    <title>Group 19@2x</title>
    <defs>
        <polygon id="path-1" points="0 0 31.1536258 0 31.1536258 24 0 24"></polygon>
        <path d="M0,0 L0,1.82556346 L2.00375299,1.82556346 C2.06676409,1.82556346 2.18585018,1.81559891 2.24270671,1.80319207 L2.24270671,1.80319207 C2.62731865,1.71995881 2.9476495,1.37842887 2.9476495,0.913416724 L2.9476495,0.913416724 C2.9476495,0.448111499 2.62731865,0.10560465 2.24270671,0.0224690745 L2.24270671,0.0224690745 C2.18585018,0.0100622377 2.06676409,0 2.00375299,0 L2.00375299,0 L0,0 Z" id="path-3"></path>
        <linearGradient x1="-57.3968522%" y1="49.9992476%" x2="233.022563%" y2="49.9992476%" id="linearGradient-5">
            <stop stop-color="#62BA46" offset="0%"></stop>
            <stop stop-color="#007E49" offset="100%"></stop>
        </linearGradient>
        <path d="M3.46160515,0 C1.54987768,0 2.77656307e-15,1.54977999 2.77656307e-15,3.46121439 L2.77656307e-15,3.46121439 L2.77656307e-15,7.05655938 L4.89806286,7.05655938 C5.01158053,7.05655938 5.15049802,7.0644724 5.23705281,7.06896622 L5.23705281,7.06896622 C6.3456574,7.12455276 7.16314095,7.69399726 7.16314095,8.68234346 L7.16314095,8.68234346 C7.16314095,9.45938267 6.60424714,10.1228065 5.58747268,10.272177 L5.58747268,10.272177 L5.58747268,10.3112537 C6.71073102,10.3892116 7.57080811,11.0073065 7.57080811,11.9814874 L7.57080811,11.9814874 C7.57080811,13.0350916 6.6269116,13.7124854 5.36864343,13.7124854 L5.36864343,13.7124854 L2.77656307e-15,13.7124854 L2.77656307e-15,20.7689471 L5.07713161,20.7689471 C6.98876139,20.7689471 8.53854138,19.2190694 8.53854138,17.3075373 L8.53854138,17.3075373 L8.53854138,0 L3.46160515,0 Z" id="path-6"></path>
        <linearGradient x1="0.000331567566%" y1="50.0000278%" x2="100.260673%" y2="50.0000278%" id="linearGradient-8">
            <stop stop-color="#62BA46" offset="0%"></stop>
            <stop stop-color="#007E49" offset="100%"></stop>
        </linearGradient>
        <path d="M0,-2.77656307e-15 L0,1.68537597 L1.81638044,1.68537597 C1.88241998,1.68537597 1.97825547,1.67589988 2.01342446,1.669843 L2.01342446,1.669843 C2.39002568,1.60624575 2.71035653,1.29978711 2.71035653,0.842883368 L2.71035653,0.842883368 C2.71035653,0.385588857 2.39002568,0.0791302189 2.01342446,0.0153375856 L2.01342446,0.0153375856 C1.97825547,0.00937839631 1.88241998,-2.77656307e-15 1.81638044,-2.77656307e-15 L1.81638044,-2.77656307e-15 L0,-2.77656307e-15 Z" id="path-9"></path>
        <linearGradient x1="-62.4242827%" y1="50.0015216%" x2="253.403612%" y2="50.0015216%" id="linearGradient-11">
            <stop stop-color="#62BA46" offset="0%"></stop>
            <stop stop-color="#007E49" offset="100%"></stop>
        </linearGradient>
        <path d="M3.46160515,0 C1.54977999,0 0,1.54977999 0,3.46121439 L0,3.46121439 L0,12.0097203 C0.970859401,12.4800078 1.97376166,12.7863688 2.99463917,12.7863688 L2.99463917,12.7863688 C4.19145931,12.7863688 4.84892397,12.0558308 4.84892397,11.0727599 L4.84892397,11.0727599 L4.84892397,7.05665707 L7.82607634,7.05665707 L7.82607634,11.0727599 C7.82607634,12.6435436 6.86185997,13.9033748 3.55314221,13.9033748 L3.55314221,13.9033748 C1.56179606,13.9033748 0,13.4740201 0,13.4740201 L0,13.4740201 L0,20.7689471 L5.07693623,20.7689471 C6.9886637,20.7689471 8.53854138,19.2190694 8.53854138,17.3075373 L8.53854138,17.3075373 L8.53854138,0 L3.46160515,0 Z" id="path-12"></path>
        <linearGradient x1="-0.129183552%" y1="50.0000278%" x2="101.678999%" y2="50.0000278%" id="linearGradient-14">
            <stop stop-color="#0077BF" offset="0%"></stop>
            <stop stop-color="#333377" offset="100%"></stop>
        </linearGradient>
        <path d="M3.46150746,0 C1.5496823,0 1.38828154e-15,1.54977999 1.38828154e-15,3.46121439 L1.38828154e-15,3.46121439 L1.38828154e-15,7.99303133 C0.877075438,7.24061041 2.39364028,6.77061599 4.8579116,6.88159368 L4.8579116,6.88159368 C6.17694396,6.94030634 7.57569269,7.29404773 7.57569269,7.29404773 L7.57569269,7.29404773 L7.57569269,8.75971523 C6.87563449,8.40489924 6.03607263,8.0762646 4.95433323,7.99430132 L4.95433323,7.99430132 C3.08422239,7.85303923 1.95881484,8.76694441 1.95881484,10.3847178 L1.95881484,10.3847178 C1.95881484,12.0021004 3.08422239,12.9158102 4.95433323,12.7738642 L4.95433323,12.7738642 C6.03607263,12.6926825 6.88667364,12.3552556 7.57569269,12.0095249 L7.57569269,12.0095249 L7.57569269,13.4743132 C7.57569269,13.4743132 6.17694396,13.8279569 4.8579116,13.8879396 L4.8579116,13.8879396 C2.39364028,13.9987219 0.877075438,13.5286298 1.38828154e-15,12.7763065 L1.38828154e-15,12.7763065 L1.38828154e-15,20.7689471 L5.07693623,20.7689471 C6.98846832,20.7689471 8.538346,19.2190694 8.538346,17.3075373 L8.538346,17.3075373 L8.538346,0 L3.46150746,0 Z" id="path-15"></path>
        <linearGradient x1="-0.600200684%" y1="50.0000278%" x2="98.2791128%" y2="50.0000278%" id="linearGradient-17">
            <stop stop-color="#EB1746" offset="0%"></stop>
            <stop stop-color="#743136" offset="100%"></stop>
        </linearGradient>
    </defs>
    <g id="EXPRESS" stroke="none" stroke-width="1" fill="none" fill-rule="evenodd">
        <g id="ExpressBooking-Step03-02/해외발행카드" transform="translate(-929.000000, -187.000000)">
            <g id="Group-19" transform="translate(929.000000, 187.000000)">
                <g id="Group-3">
                    <mask id="mask-2" fill="white">
                        <use xlink:href="#path-1"></use>
                    </mask>
                    <g id="Clip-2"></g>
                    <path d="M31.1536649,19.1539091 C31.1536649,21.8300736 28.9839338,24 26.307574,24 L0,24 L0,4.84599322 C0,2.16963337 2.16973106,0 4.84638399,0 L31.1536649,0 L31.1536649,19.1539091 Z" id="Fill-1" fill="#FFFFFF" mask="url(#mask-2)"></path>
                </g>
                <g id="Group-6" transform="translate(22.576301, 12.421149)">
                    <mask id="mask-4" fill="white">
                        <use xlink:href="#path-3"></use>
                    </mask>
                    <g id="Clip-5"></g>
                    <path d="M0,0 L0,1.82556346 L2.00375299,1.82556346 C2.06676409,1.82556346 2.18585018,1.81559891 2.24270671,1.80319207 L2.24270671,1.80319207 C2.62731865,1.71995881 2.9476495,1.37842887 2.9476495,0.913416724 L2.9476495,0.913416724 C2.9476495,0.448111499 2.62731865,0.10560465 2.24270671,0.0224690745 L2.24270671,0.0224690745 C2.18585018,0.0100622377 2.06676409,0 2.00375299,0 L2.00375299,0 L0,0 Z" id="Fill-4" fill="url(#linearGradient-5)" mask="url(#mask-4)"></path>
                </g>
                <g id="Group-9" transform="translate(20.884282, 1.615478)">
                    <mask id="mask-7" fill="white">
                        <use xlink:href="#path-6"></use>
                    </mask>
                    <g id="Clip-8"></g>
                    <path d="M3.46160515,0 C1.54987768,0 2.77656307e-15,1.54977999 2.77656307e-15,3.46121439 L2.77656307e-15,3.46121439 L2.77656307e-15,7.05655938 L4.89806286,7.05655938 C5.01158053,7.05655938 5.15049802,7.0644724 5.23705281,7.06896622 L5.23705281,7.06896622 C6.3456574,7.12455276 7.16314095,7.69399726 7.16314095,8.68234346 L7.16314095,8.68234346 C7.16314095,9.45938267 6.60424714,10.1228065 5.58747268,10.272177 L5.58747268,10.272177 L5.58747268,10.3112537 C6.71073102,10.3892116 7.57080811,11.0073065 7.57080811,11.9814874 L7.57080811,11.9814874 C7.57080811,13.0350916 6.6269116,13.7124854 5.36864343,13.7124854 L5.36864343,13.7124854 L2.77656307e-15,13.7124854 L2.77656307e-15,20.7689471 L5.07713161,20.7689471 C6.98876139,20.7689471 8.53854138,19.2190694 8.53854138,17.3075373 L8.53854138,17.3075373 L8.53854138,0 L3.46160515,0 Z" id="Fill-7" fill="url(#linearGradient-8)" mask="url(#mask-7)"></path>
                </g>
                <g id="Group-12" transform="translate(22.576301, 9.705224)">
                    <mask id="mask-10" fill="white">
                        <use xlink:href="#path-9"></use>
                    </mask>
                    <g id="Clip-11"></g>
                    <path d="M0,-2.77656307e-15 L0,1.68537597 L1.81638044,1.68537597 C1.88241998,1.68537597 1.97825547,1.67589988 2.01342446,1.669843 L2.01342446,1.669843 C2.39002568,1.60624575 2.71035653,1.29978711 2.71035653,0.842883368 L2.71035653,0.842883368 C2.71035653,0.385588857 2.39002568,0.0791302189 2.01342446,0.0153375856 L2.01342446,0.0153375856 C1.97825547,0.00937839631 1.88241998,-2.77656307e-15 1.81638044,-2.77656307e-15 L1.81638044,-2.77656307e-15 L0,-2.77656307e-15 Z" id="Fill-10" fill="url(#linearGradient-11)" mask="url(#mask-10)"></path>
                </g>
                <g id="Group-15" transform="translate(1.730764, 1.615478)">
                    <mask id="mask-13" fill="white">
                        <use xlink:href="#path-12"></use>
                    </mask>
                    <g id="Clip-14"></g>
                    <path d="M3.46160515,0 C1.54977999,0 0,1.54977999 0,3.46121439 L0,3.46121439 L0,12.0097203 C0.970859401,12.4800078 1.97376166,12.7863688 2.99463917,12.7863688 L2.99463917,12.7863688 C4.19145931,12.7863688 4.84892397,12.0558308 4.84892397,11.0727599 L4.84892397,11.0727599 L4.84892397,7.05665707 L7.82607634,7.05665707 L7.82607634,11.0727599 C7.82607634,12.6435436 6.86185997,13.9033748 3.55314221,13.9033748 L3.55314221,13.9033748 C1.56179606,13.9033748 0,13.4740201 0,13.4740201 L0,13.4740201 L0,20.7689471 L5.07693623,20.7689471 C6.9886637,20.7689471 8.53854138,19.2190694 8.53854138,17.3075373 L8.53854138,17.3075373 L8.53854138,0 L3.46160515,0 Z" id="Fill-13" fill="url(#linearGradient-14)" mask="url(#mask-13)"></path>
                </g>
                <g id="Group-18" transform="translate(11.307669, 1.615478)">
                    <mask id="mask-16" fill="white">
                        <use xlink:href="#path-15"></use>
                    </mask>
                    <g id="Clip-17"></g>
                    <path d="M3.46150746,0 C1.5496823,0 1.38828154e-15,1.54977999 1.38828154e-15,3.46121439 L1.38828154e-15,3.46121439 L1.38828154e-15,7.99303133 C0.877075438,7.24061041 2.39364028,6.77061599 4.8579116,6.88159368 L4.8579116,6.88159368 C6.17694396,6.94030634 7.57569269,7.29404773 7.57569269,7.29404773 L7.57569269,7.29404773 L7.57569269,8.75971523 C6.87563449,8.40489924 6.03607263,8.0762646 4.95433323,7.99430132 L4.95433323,7.99430132 C3.08422239,7.85303923 1.95881484,8.76694441 1.95881484,10.3847178 L1.95881484,10.3847178 C1.95881484,12.0021004 3.08422239,12.9158102 4.95433323,12.7738642 L4.95433323,12.7738642 C6.03607263,12.6926825 6.88667364,12.3552556 7.57569269,12.0095249 L7.57569269,12.0095249 L7.57569269,13.4743132 C7.57569269,13.4743132 6.17694396,13.8279569 4.8579116,13.8879396 L4.8579116,13.8879396 C2.39364028,13.9987219 0.877075438,13.5286298 1.38828154e-15,12.7763065 L1.38828154e-15,12.7763065 L1.38828154e-15,20.7689471 L5.07693623,20.7689471 C6.98846832,20.7689471 8.538346,19.2190694 8.538346,17.3075373 L8.538346,17.3075373 L8.538346,0 L3.46150746,0 Z" id="Fill-16" fill="url(#linearGradient-17)" mask="url(#mask-16)"></path>
                </g>
            </g>
        </g>
    </g>
</svg>