<svg width="31" height="24" viewBox="0 0 31 24" fill="none" xmlns="http://www.w3.org/2000/svg">
<g id="-mastercard">
<g id="Group 73">
<path id="Fill 1" fill-rule="evenodd" clip-rule="evenodd" d="M11.2964 16.9447H19.7688V1.88257H11.2964V16.9447Z" fill="#FF5F00"/>
<g id="Group 8">
<path id="Fill 2" fill-rule="evenodd" clip-rule="evenodd" d="M11.6352 9.4138C11.6352 6.4108 13.0413 3.73623 15.2308 2.01272C13.6294 0.752058 11.6091 0 9.41302 0C4.21425 0 0 4.21477 0 9.4138C0 14.6128 4.21425 18.8276 9.41302 18.8276C11.6091 18.8276 13.6294 18.0756 15.2308 16.8149C13.0413 15.0911 11.6352 12.4168 11.6352 9.4138" fill="#EB001B"/>
<path id="Fill 4" fill-rule="evenodd" clip-rule="evenodd" d="M30.4617 9.4138C30.4617 14.6128 26.2472 18.8276 21.0487 18.8276C18.8527 18.8276 16.8321 18.0756 15.231 16.8149C17.4205 15.0911 18.8265 12.4168 18.8265 9.4138C18.8265 6.4108 17.4205 3.73623 15.231 2.01272C16.8321 0.752058 18.8527 0 21.0487 0C26.2472 0 30.4617 4.21477 30.4617 9.4138" fill="#F79E1B"/>
<path id="Fill 6" fill-rule="evenodd" clip-rule="evenodd" d="M30.23 15.7377V14.8819H30.127L30.0088 15.4706L29.8902 14.8819H29.7873V15.7377H29.8598V15.092L29.9709 15.6489H30.0463L30.1575 15.0908V15.7377H30.23ZM29.5782 15.7377V15.0277H29.7102V14.8831H29.3744V15.0277H29.5062V15.7377H29.5782Z" fill="#F79E1B"/>
</g>
</g>
<g id="Group 3">
<mask id="mask0_164_20535" style="mask-type:luminance" maskUnits="userSpaceOnUse" x="0" y="0" width="31" height="24">
<path id="Clip 2" fill-rule="evenodd" clip-rule="evenodd" d="M0 0H30.4615V24H0V0Z" fill="white"/>
</mask>
<g mask="url(#mask0_164_20535)">
<path id="Fill 1_2" fill-rule="evenodd" clip-rule="evenodd" d="M6.75766 22.5197C6.75766 22.0886 7.03988 21.7345 7.50183 21.7345C7.94319 21.7345 8.24088 22.0732 8.24088 22.5197C8.24088 22.9663 7.94319 23.305 7.50183 23.305C7.03988 23.305 6.75766 22.9508 6.75766 22.5197V22.5197ZM8.74422 22.5198V21.2931H8.21043V21.5908C8.04104 21.3701 7.78444 21.2314 7.43541 21.2314C6.7476 21.2314 6.20868 21.7705 6.20868 22.5198C6.20868 23.2692 6.7476 23.8081 7.43541 23.8081C7.78444 23.8081 8.04104 23.6695 8.21043 23.4488V23.7465H8.74422V22.5198ZM26.7701 22.5197C26.7701 22.0886 27.0525 21.7345 27.5144 21.7345C27.9558 21.7345 28.2535 22.0732 28.2535 22.5197C28.2535 22.9663 27.9558 23.305 27.5144 23.305C27.0525 23.305 26.7701 22.9508 26.7701 22.5197V22.5197ZM29.3531 23.6299V23.6685H29.3885C29.3967 23.6685 29.4032 23.6669 29.408 23.6637C29.4128 23.6605 29.4153 23.6556 29.4153 23.6489C29.4153 23.6426 29.4128 23.6379 29.408 23.6347C29.4032 23.6315 29.3967 23.6299 29.3885 23.6299H29.3531ZM29.3894 23.6031C29.4079 23.6031 29.4223 23.6072 29.4323 23.6155C29.4424 23.6238 29.4474 23.635 29.4474 23.6493C29.4474 23.6612 29.4434 23.6711 29.4354 23.6789C29.4273 23.6867 29.4159 23.6914 29.4012 23.6932L29.4485 23.7477H29.4115L29.3677 23.6935H29.3535V23.7477H29.3226V23.6031H29.3894ZM29.3803 23.7969C29.3971 23.7969 29.4128 23.7938 29.4273 23.7874C29.4418 23.7811 29.4545 23.7724 29.4655 23.7615C29.4764 23.7505 29.485 23.7377 29.4912 23.723C29.4974 23.7082 29.5006 23.6924 29.5006 23.6756C29.5006 23.6589 29.4974 23.643 29.4912 23.6284C29.485 23.6136 29.4764 23.6007 29.4655 23.5897C29.4545 23.5788 29.4418 23.5703 29.4273 23.564C29.4128 23.5578 29.3971 23.5547 29.3803 23.5547C29.3633 23.5547 29.3473 23.5578 29.3324 23.564C29.3176 23.5703 29.3047 23.5788 29.2937 23.5897C29.2829 23.6007 29.2742 23.6136 29.268 23.6284C29.2617 23.643 29.2586 23.6589 29.2586 23.6756C29.2586 23.6924 29.2617 23.7082 29.268 23.723C29.2742 23.7377 29.2829 23.7505 29.2937 23.7615C29.3047 23.7724 29.3176 23.7811 29.3324 23.7874C29.3473 23.7938 29.3633 23.7969 29.3803 23.7969V23.7969ZM29.3802 23.52C29.4021 23.52 29.4226 23.5241 29.4418 23.5322C29.461 23.5403 29.4778 23.5514 29.4923 23.5656C29.5066 23.5797 29.5179 23.5962 29.5262 23.6152C29.5344 23.6341 29.5386 23.6543 29.5386 23.6756C29.5386 23.6971 29.5344 23.7171 29.5262 23.736C29.5179 23.7548 29.5066 23.7713 29.4923 23.7854C29.4778 23.7995 29.461 23.8107 29.4418 23.8189C29.4226 23.8272 29.4021 23.8314 29.3802 23.8314C29.3578 23.8314 29.3369 23.8272 29.3174 23.8189C29.298 23.8107 29.2811 23.7995 29.2669 23.7854C29.2526 23.7713 29.2413 23.7548 29.2331 23.736C29.2248 23.7171 29.2207 23.6971 29.2207 23.6756C29.2207 23.6543 29.2248 23.6341 29.2331 23.6152C29.2413 23.5962 29.2526 23.5797 29.2669 23.5656C29.2811 23.5514 29.298 23.5403 29.3174 23.5322C29.3369 23.5241 29.3578 23.52 29.3802 23.52V23.52ZM28.7558 22.5198V20.3077H28.222V21.5909C28.0526 21.3702 27.7959 21.2315 27.447 21.2315C26.7592 21.2315 26.2203 21.7705 26.2203 22.5198C26.2203 23.2692 26.7592 23.8081 27.447 23.8081C27.7959 23.8081 28.0526 23.6696 28.222 23.4489V23.7465H28.7558V22.5198ZM15.3656 21.709C15.7095 21.709 15.9303 21.9245 15.9867 22.3044H14.7138C14.7703 21.9502 14.9859 21.709 15.3656 21.709V21.709ZM15.3755 21.2314C14.6569 21.2314 14.154 21.755 14.154 22.5198C14.154 23.3 14.6775 23.8081 15.4115 23.8081C15.781 23.8081 16.1198 23.7156 16.4175 23.4642L16.1556 23.069C15.9504 23.2332 15.6887 23.3256 15.4422 23.3256C15.0983 23.3256 14.7852 23.1665 14.7083 22.7251H16.5304C16.5355 22.6584 16.5406 22.5917 16.5406 22.5198C16.5355 21.755 16.0633 21.2314 15.3755 21.2314V21.2314ZM21.8167 22.5197C21.8167 22.0886 22.099 21.7345 22.561 21.7345C23.0023 21.7345 23.3 22.0732 23.3 22.5197C23.3 22.9663 23.0023 23.305 22.561 23.305C22.099 23.305 21.8167 22.9508 21.8167 22.5197V22.5197ZM23.8028 22.5198V21.2931H23.269V21.5908C23.0996 21.3701 22.843 21.2314 22.494 21.2314C21.8062 21.2314 21.2673 21.7705 21.2673 22.5198C21.2673 23.2692 21.8062 23.8081 22.494 23.8081C22.843 23.8081 23.0996 23.6695 23.269 23.4488V23.7465H23.8028V22.5198ZM18.8045 22.5198C18.8045 23.264 19.323 23.8081 20.1134 23.8081C20.483 23.8081 20.7293 23.726 20.9962 23.5155L20.7396 23.0844C20.5394 23.2281 20.329 23.305 20.098 23.305C19.672 23.3 19.3589 22.992 19.3589 22.5198C19.3589 22.0476 19.672 21.7396 20.098 21.7345C20.329 21.7345 20.5394 21.8115 20.7396 21.9552L20.9962 21.5241C20.7293 21.3136 20.483 21.2314 20.1134 21.2314C19.323 21.2314 18.8045 21.7756 18.8045 22.5198V22.5198ZM25.6824 21.2314C25.3744 21.2314 25.1743 21.3752 25.0357 21.5908V21.2931H24.5071V23.7465H25.0409V22.371C25.0409 21.9655 25.2154 21.7396 25.5643 21.7396C25.6722 21.7396 25.7851 21.755 25.8981 21.8012L26.0622 21.2983C25.9442 21.252 25.7901 21.2314 25.6824 21.2314V21.2314ZM11.383 21.4881C11.1263 21.3188 10.7722 21.2314 10.3821 21.2314C9.76104 21.2314 9.36078 21.5291 9.36078 22.0168C9.36078 22.4172 9.65847 22.6635 10.2075 22.7405L10.4591 22.7765C10.7517 22.8174 10.8902 22.8945 10.8902 23.0331C10.8902 23.2229 10.6952 23.3307 10.3308 23.3307C9.96128 23.3307 9.69433 23.2127 9.51469 23.0741L9.26322 23.4898C9.55579 23.7054 9.92531 23.8081 10.3257 23.8081C11.034 23.8081 11.4445 23.4744 11.4445 23.0073C11.4445 22.5762 11.1212 22.3504 10.5874 22.2734L10.3359 22.2374C10.1049 22.2067 9.92019 22.1605 9.92019 21.9963C9.92019 21.8166 10.0947 21.7089 10.3873 21.7089C10.7003 21.7089 11.0031 21.8269 11.152 21.9193L11.383 21.4881ZM18.2654 21.2314C17.9574 21.2314 17.7572 21.3752 17.6187 21.5908V21.2931H17.09V23.7465H17.6238V22.371C17.6238 21.9655 17.7983 21.7396 18.1473 21.7396C18.2551 21.7396 18.3681 21.755 18.481 21.8012L18.6453 21.2983C18.5272 21.252 18.3732 21.2314 18.2654 21.2314V21.2314ZM13.7128 21.2929H12.8402V20.5486H12.3013V21.2929H11.8035V21.7805H12.3013V22.8994C12.3013 23.4691 12.522 23.8078 13.1534 23.8078C13.3844 23.8078 13.6512 23.736 13.8206 23.6179L13.6666 23.1611C13.5074 23.2535 13.3329 23.2997 13.1944 23.2997C12.9275 23.2997 12.8402 23.1355 12.8402 22.8891V21.7805H13.7128V21.2929ZM5.73671 23.7464V22.2067C5.73671 21.6266 5.36719 21.2366 4.77181 21.2314C4.45875 21.2264 4.13534 21.3238 3.90948 21.6677C3.7402 21.3958 3.47325 21.2314 3.0986 21.2314C2.83678 21.2314 2.58018 21.3085 2.38005 21.5959V21.2931H1.84615V23.7464H2.38507V22.3863C2.38507 21.9603 2.62127 21.7345 2.98567 21.7345C3.33983 21.7345 3.51946 21.9654 3.51946 22.3812V23.7464H4.05838V22.3863C4.05838 21.9603 4.30473 21.7345 4.65888 21.7345C5.02328 21.7345 5.1978 21.9654 5.1978 22.3812V23.7464H5.73671Z" fill="#231F20"/>
</g>
</g>
</g>
</svg>
