<?xml version="1.0" encoding="UTF-8"?>
<svg width="24px" height="24px" viewBox="0 0 24 24" version="1.1" xmlns="http://www.w3.org/2000/svg" xmlns:xlink="http://www.w3.org/1999/xlink">
    <title>Fill 1</title>
    <g id="EXPRESS" stroke="none" stroke-width="1" fill="none" fill-rule="evenodd">
        <g id="ExpressBooking-Step03-02/해외발행카드" transform="translate(-724.000000, -187.000000)" fill="#006FCF">
            <path d="M724,187 L724,211 L748,211 L748,207.197104 L745.104592,207.197104 L743.613904,205.548784 L742.11568,207.197104 L732.569296,207.197104 L732.569296,199.514896 L729.488128,199.514896 L733.309984,190.86568 L736.995808,190.86568 L738.311536,193.828768 L738.311536,190.86568 L742.873888,190.86568 L743.666032,193.098496 L744.46336,190.86568 L748,190.86568 L748,187 L724,187 Z M745.178992,191.827504 L743.672512,196.010896 L742.175728,191.827504 L739.306864,191.827504 L739.306864,198.544096 L741.120256,198.544096 L741.120256,193.842544 L742.84744,198.544096 L744.459328,198.544096 L746.186464,193.8328 L746.186464,198.544096 L748,198.544096 L748,191.827504 L745.178992,191.827504 Z M733.981696,191.827504 L731.016688,198.544096 L733.03168,198.544096 L733.588288,197.200768 L736.677808,197.200768 L737.24392,198.544096 L739.306864,198.544096 L736.342144,191.827504 L733.981696,191.827504 Z M735.133072,193.49704 L736.04464,195.694288 L734.221456,195.694288 L735.133072,193.49704 Z M745.630624,199.518736 L743.663728,201.66808 L741.715744,199.518736 L739.307488,199.518736 L742.473808,202.877056 L739.307488,206.235328 L741.648736,206.235328 L743.62528,204.066832 L745.59232,206.235328 L748,206.235328 L744.815056,202.857808 L748,199.518736 L745.630624,199.518736 Z M733.588768,199.518736 L733.588768,206.235328 L739.307344,206.235328 L739.307344,204.680896 L735.421504,204.680896 L735.421504,203.634976 L739.21144,203.634976 L739.21144,202.118944 L735.421504,202.118944 L735.421504,201.073168 L739.307344,201.073168 L739.307344,199.518736 L733.588768,199.518736 Z M746.1556,202.86064 L748,204.822832 L748,200.914864 L746.1556,202.86064 Z" id="Fill-1"></path>
        </g>
    </g>
</svg>