<?xml version="1.0" encoding="UTF-8"?>
<svg width="75px" height="24px" viewBox="0 0 75 24" version="1.1" xmlns="http://www.w3.org/2000/svg" xmlns:xlink="http://www.w3.org/1999/xlink">
    <title>Group 3</title>
    <defs>
        <polygon id="path-1" points="0 0 74.5945946 0 74.5945946 24 0 24"></polygon>
    </defs>
    <g id="EXPRESS" stroke="none" stroke-width="1" fill="none" fill-rule="evenodd">
        <g id="ExpressBooking-Step03-02/해외발행카드" transform="translate(-446.000000, -187.000000)">
            <g id="Group-3" transform="translate(446.000000, 187.000000)">
                <mask id="mask-2" fill="white">
                    <use xlink:href="#path-1"></use>
                </mask>
                <g id="Clip-2"></g>
                <path d="M36.9346218,0.424203329 L31.9504079,23.6369501 L25.9230407,23.6369501 L30.9091971,0.424203329 L36.9346218,0.424203329 Z M62.2943208,15.4122049 L65.4669056,6.6966843 L67.2929097,15.4122049 L62.2943208,15.4122049 Z M69.0198432,23.6369501 L74.5945946,23.6369501 L69.7284882,0.424203329 L64.583042,0.424203329 C63.4260548,0.424203329 62.4501139,1.09534254 62.0180892,2.12720939 L52.9731532,23.6369501 L59.3023938,23.6369501 L60.55884,20.1697845 L68.2921612,20.1697845 L69.0198432,23.6369501 Z M53.2874589,16.058186 C53.3131007,9.93162173 44.7837195,9.59411689 44.8423847,6.85730873 C44.8606447,6.02438395 45.6567048,5.1388208 47.3991788,4.91278545 C48.2628398,4.80015482 50.6424727,4.71423042 53.341462,5.95161915 L54.4001559,1.02915753 C52.9498425,0.50470907 51.0838218,0 48.7620771,0 C42.8042534,0 38.6114374,3.15520578 38.5760829,7.67320346 C38.5376202,11.0149658 41.5687869,12.8797575 43.8524574,13.9901948 C46.2017864,15.1273384 46.9900762,15.8580828 46.9811404,16.8752419 C46.9644344,18.4323313 45.1073495,19.1197265 43.3718687,19.1468198 C40.3422561,19.1932654 38.5842416,18.3301509 37.1828807,17.6810734 L36.0903864,22.7664817 C37.4987405,23.4101406 40.0982709,23.9717456 42.7933751,24 C49.1257239,24 53.2680334,20.883886 53.2874589,16.058186 L53.2874589,16.058186 Z M28.3224876,0.424203329 L18.5564743,23.6369501 L12.1848859,23.6369501 L7.37899873,5.11211457 C7.0872266,3.9711005 6.8335286,3.55308992 5.94616835,3.07237776 C4.49740901,2.28938202 2.10495525,1.55476713 0,1.09882596 L0.142972228,0.424203329 L10.3992871,0.424203329 C11.7066282,0.424203329 12.8818755,1.29118823 13.1786983,2.79099471 L15.7168438,16.223068 L21.9897503,0.423816282 L28.3224876,0.423816282 L28.3224876,0.424203329 Z" id="Fill-1" fill="#1434CB" mask="url(#mask-2)"></path>
            </g>
        </g>
    </g>
</svg>