<svg width="24" height="24" viewBox="0 0 24 24" fill="none" xmlns="http://www.w3.org/2000/svg">
    <path fill-rule="evenodd" clip-rule="evenodd" d="M5.48966 4.45041C5.7932 4.16856 6.26775 4.18613 6.5496 4.48966L19.5496 18.4897C19.8315 18.7932 19.8139 19.2677 19.5103 19.5496C19.2068 19.8315 18.7323 19.8139 18.4504 19.5103L5.45041 5.51034C5.16856 5.20681 5.18613 4.73226 5.48966 4.45041Z" fill="#051766" />
    <path fill-rule="evenodd" clip-rule="evenodd" d="M19.5103 4.45041C19.2068 4.16856 18.7323 4.18613 18.4504 4.48966L5.4504 18.4897C5.16855 18.7932 5.18613 19.2677 5.48966 19.5496C5.79319 19.8315 6.26774 19.8139 6.54959 19.5103L19.5496 5.51034C19.8314 5.20681 19.8139 4.73226 19.5103 4.45041Z" fill="#051766" />
</svg>