<svg xmlns="http://www.w3.org/2000/svg" width="80" height="80" viewBox="0 0 80 80">
    <g fill="none" fill-rule="evenodd">
        <path d="M0 0H80V80H0z" />
        <path fill="#A9EAFC" d="M7 19.91v16.894c0 .503.407.91.91.91.24 0 .471-.096.642-.267l16.896-16.895c.355-.355.355-.93 0-1.286-.17-.17-.402-.266-.643-.266H7.91c-.502 0-.909.407-.909.91z" />
        <path stroke="#051766" stroke-linejoin="round" stroke-width="3.333" d="M71.667 50l-6.9 8.01C63.493 59.283 61.765 60 59.963 60H15c-1.84 0-3.333-1.492-3.333-3.333v-30c0-1.841 1.492-3.334 3.333-3.334h50c1.84 0 3.333 1.493 3.333 3.334V49.55h0" />
        <path fill="#FFF" d="M73.333 38.5v3.883H75V59.05h-5v-9.884l-5 6V48.5l5-6v-.117h.097l3.236-3.883z" />
        <path fill="#051766" d="M25.57 43.975l1.45-.676 2.529 1.474 4.195-1.956-4.701-4.875 1.59-.741 6.708 3.939 4.251-1.983c1.176-.543 1.975-.362 2.397.544.423.906.046 1.632-1.129 2.175l-12.986 6.056c-.295.148-.54.12-.734-.085-.194-.206-1.384-1.496-3.57-3.872z" />
        <path stroke="#051766" stroke-linejoin="round" stroke-width="2.667" d="M55.37 29.55L55.37 34.55M55.37 39.55L55.37 44.55M55.37 49.55L55.37 54.55" />
    </g>
</svg>