<svg width="96" height="96" viewBox="0 0 96 96" fill="none" xmlns="http://www.w3.org/2000/svg">
<path fill-rule="evenodd" clip-rule="evenodd" d="M62.8657 45.8675L62.8364 45.8968L48.0303 30.9258L32.9976 45.8818L32.9832 45.8674L27.3633 51.4873L27.2969 51.5534L27.297 51.5535L17.8603 60.9903L17.6637 61.1869L16.7563 62.0942H19.7053C21.2575 62.1918 22.8134 61.9741 24.2793 61.4543C25.7451 60.9345 27.0906 60.1233 28.2346 59.0697L37.2025 50.0867L37.1752 50.0594L48.0001 39.3038L58.653 50.0652L58.6313 50.0868L67.6143 59.0698C68.7598 60.1213 70.1055 60.931 71.571 61.4507C73.0364 61.9704 74.5916 62.1893 76.1436 62.0944H79.0926L78.1852 61.187L77.9886 60.9904L62.8657 45.8675Z" fill="#051766"/>
</svg>
