<svg xmlns="http://www.w3.org/2000/svg" xmlns:xlink="http://www.w3.org/1999/xlink" width="18" height="12" viewBox="0 0 18 12">
    <defs>
        <filter id="prefix__a" width="105.5%" height="105.4%" x="-2.8%" y="-1.7%" filterUnits="objectBoundingBox">
            <feOffset dy="4" in="SourceAlpha" result="shadowOffsetOuter1" />
            <feGaussianBlur in="shadowOffsetOuter1" result="shadowBlurOuter1" stdDeviation="3" />
            <feComposite in="shadowBlurOuter1" in2="SourceAlpha" operator="out" result="shadowBlurOuter1" />
            <feColorMatrix in="shadowBlurOuter1" values="0 0 0 0 0 0 0 0 0 0 0 0 0 0 0 0 0 0 0.1 0" />
        </filter>
        <path id="prefix__b" d="M58 0l8.571 11.999L397 12c1.105 0 2 .895 2 2v390c0 1.105-.895 2-2 2H2c-1.105 0-2-.895-2-2V14c0-1.105.895-2 2-2l47.429-.001L58 0z" />
    </defs>
    <g fill="none" fill-rule="evenodd" transform="translate(-49)">
        <use fill="#000" filter="url(#prefix__a)" xlink:href="#prefix__b" />
        <path fill="#FFF" stroke="#051766" stroke-linejoin="square" d="M58 .86L49.686 12.5 2 12.5c-.414 0-.79.168-1.06.44-.272.27-.44.646-.44 1.06v390c0 .414.168.79.44 1.06.27.272.646.44 1.06.44h395c.414 0 .79-.168 1.06-.44.272-.27.44-.646.44-1.06V14c0-.414-.168-.79-.44-1.06-.27-.272-.646-.44-1.06-.44l-330.686-.001L58 .86z" />
    </g>
</svg>