<?xml version="1.0" encoding="UTF-8"?>
<svg width="42px" height="42px" viewBox="0 0 42 42" version="1.1" xmlns="http://www.w3.org/2000/svg" xmlns:xlink="http://www.w3.org/1999/xlink">
    <title>checkin/print</title>
    <g id="체크인" stroke="none" stroke-width="1" fill="none" fill-rule="evenodd">
        <g id="PW_CK_103000_002(P)-Copy-2" transform="translate(-972.000000, -310.000000)">
            <g id="SNS" transform="translate(320.000000, 290.000000)">
                <g id="Group" transform="translate(652.000000, 20.000000)">
                    <rect id="Rectangle" x="0" y="0" width="42" height="42"></rect>
                    <rect id="Rectangle" fill="#F3F4F8" x="0" y="0" width="42" height="42" rx="21"></rect>
                    <g transform="translate(5.000000, 5.000000)" id="Icon/Common/Print">
                        <rect id="Rectangle" x="0" y="0" width="32" height="32"></rect>
                        <g id="Calendar" transform="translate(5.333333, 5.333333)">
                            <path d="M1.33333333,6.66666667 L20,6.66666667 C20.7363797,6.66666667 21.3333333,7.26362033 21.3333333,8 L21.3333333,16 C21.3333333,16.7363797 20.7363797,17.3333333 20,17.3333333 L1.33333333,17.3333333 C0.596953667,17.3333333 0,16.7363797 0,16 L0,8 C0,7.26362033 0.596953667,6.66666667 1.33333333,6.66666667 Z" id="Rectangle" fill="#051766"></path>
                            <path d="M16,15.1666667 C16.2301186,15.1666667 16.438452,15.2599407 16.5892557,15.4107443 C16.7400593,15.561548 16.8333333,15.7698814 16.8333333,16 L16.8333333,16 L16.8333333,20 C16.8333333,20.2301186 16.7400593,20.438452 16.5892557,20.5892557 C16.438452,20.7400593 16.2301186,20.8333333 16,20.8333333 L16,20.8333333 L5.33333333,20.8333333 C5.10321469,20.8333333 4.89488135,20.7400593 4.74407768,20.5892557 C4.59327401,20.438452 4.5,20.2301186 4.5,20 L4.5,20 L4.5,16 C4.5,15.7698814 4.59327401,15.561548 4.74407768,15.4107443 C4.89488135,15.2599407 5.10321469,15.1666667 5.33333333,15.1666667 L5.33333333,15.1666667 Z" id="Rectangle-Copy" stroke="#FFFFFF" fill="#051766"></path>
                            <polygon id="Rectangle-Copy-3" fill="#FFFFFF" points="2.66666667 10.6666667 6.66666667 10.6666667 6.66666667 12 2.66666667 12"></polygon>
                            <path d="M17.3333333,0.5 C17.563452,0.5 17.7717853,0.59327401 17.922589,0.744077682 C18.0733927,0.894881354 18.1666667,1.10321469 18.1666667,1.33333333 L18.1666667,1.33333333 L18.1666667,5.33333333 C18.1666667,5.56345198 18.0733927,5.77178531 17.922589,5.92258898 C17.7717853,6.07339266 17.563452,6.16666667 17.3333333,6.16666667 L17.3333333,6.16666667 L4,6.16666667 C3.76988135,6.16666667 3.56154802,6.07339266 3.41074435,5.92258898 C3.25994068,5.77178531 3.16666667,5.56345198 3.16666667,5.33333333 L3.16666667,5.33333333 L3.16666667,1.33333333 C3.16666667,1.10321469 3.25994068,0.894881354 3.41074435,0.744077682 C3.56154802,0.59327401 3.76988135,0.5 4,0.5 L4,0.5 Z" id="Rectangle-Copy-2" stroke="#FFFFFF" fill="#051766"></path>
                        </g>
                    </g>
                </g>
            </g>
        </g>
    </g>
</svg>