<svg width="24" height="24" viewBox="0 0 24 24" fill="none" xmlns="http://www.w3.org/2000/svg">
<path fill-rule="evenodd" clip-rule="evenodd" d="M12.0001 15.2816C12.12 15.2816 12.2332 15.2522 12.3334 15.1998C12.4036 15.1633 12.4683 15.1151 12.5249 15.0565L14.9248 12.5692C15.2144 12.269 15.2144 11.7823 14.9248 11.4821C14.6351 11.1819 14.1656 11.1819 13.8759 11.4821L12.7418 12.6576V5.76867C12.7418 5.34415 12.4097 5 12.0001 5C11.5905 5 11.2585 5.34415 11.2585 5.76867V12.6568L10.125 11.4821C9.83539 11.1819 9.3658 11.1819 9.07617 11.4821C8.78653 11.7823 8.78653 12.269 9.07617 12.5692L11.4621 15.0421C11.5973 15.1896 11.7883 15.2816 12.0001 15.2816ZM6.98331 14.7511C6.98331 14.3266 6.65126 13.9824 6.24166 13.9824C5.83205 13.9824 5.5 14.3266 5.5 14.7511V18.2319C5.5 18.6564 5.83205 19.0006 6.24166 19.0006H17.7583C18.1679 19.0006 18.5 18.6564 18.5 18.2319V14.7511C18.5 14.3266 18.1679 13.9824 17.7583 13.9824C17.3487 13.9824 17.0167 14.3266 17.0167 14.7511V17.4632H6.98331V14.7511Z" fill="black"/>
</svg>
