<svg width="16" height="17" viewBox="0 0 16 17" xmlns="http://www.w3.org/2000/svg">
    <g fill="#051766" stroke="#0060E1" stroke-width=".3" fill-rule="evenodd">
        <path d="M2.033 6.556a.333.333 0 0 1-.333-.333V2.98c0-.184.15-.333.333-.333H5.22a.333.333 0 1 1 0 .667H2.366v2.91a.333.333 0 0 1-.333.332M5.234 15.294H2.048a.333.333 0 0 1-.334-.333v-3.243a.333.333 0 0 1 .667 0v2.91h2.853a.334.334 0 0 1 0 .666M14.027 6.556a.333.333 0 0 1-.333-.333V3.314H10.84a.334.334 0 0 1 0-.667h3.187c.184 0 .333.15.333.333v3.243a.333.333 0 0 1-.333.333M14.013 15.294h-3.186a.333.333 0 1 1 0-.667h2.853v-2.909a.333.333 0 1 1 .666 0v3.243a.333.333 0 0 1-.333.333M14.045 9.255H2.049a.333.333 0 1 1 0-.667h11.996a.334.334 0 0 1 0 .667" />
    </g>
</svg>