<svg width="24" height="24" viewBox="0 0 24 24" xmlns="http://www.w3.org/2000/svg">
    <g fill="none" fill-rule="evenodd">
        <path d="M0 0h24v24H0z"/>
        <path d="M12 3c4.962 0 9 4.037 9 9s-4.038 9-9 9-9-4.037-9-9 4.038-9 9-9zm0 1.5c-4.134 0-7.5 3.366-7.5 7.5s3.366 7.5 7.5 7.5 7.5-3.366 7.5-7.5-3.366-7.5-7.5-7.5z" fill="#767676" fill-rule="nonzero"/>
        <path d="M11.342 14.362v-.858c0-.307.055-.577.165-.81a2.76 2.76 0 0 1 .416-.64c.167-.192.348-.372.542-.539.195-.167.376-.339.543-.515.167-.176.306-.363.416-.56.11-.197.164-.421.164-.673 0-.192-.026-.373-.079-.543a1.274 1.274 0 0 0-.24-.446 1.122 1.122 0 0 0-.405-.302 1.404 1.404 0 0 0-.58-.11c-.207 0-.397.051-.57.154a1.45 1.45 0 0 0-.454.433 2.367 2.367 0 0 0-.31.663c-.077.256-.123.54-.137.852H9.282c.018-.5.105-.955.26-1.367.156-.412.367-.766.633-1.062a2.81 2.81 0 0 1 .934-.686 2.802 2.802 0 0 1 1.174-.244c.522 0 .965.075 1.33.226.364.152.66.352.889.601.229.25.395.534.498.852.103.318.155.645.155.979 0 .284-.05.542-.152.773-.1.231-.226.447-.377.649a5.586 5.586 0 0 1-.495.573 7.76 7.76 0 0 0-.494.55 3.146 3.146 0 0 0-.378.58c-.101.202-.151.422-.151.66v.81h-1.766zm1.766 1.01V17h-1.766v-1.628h1.766z" fill="#767676" fill-rule="nonzero"/>
    </g>
</svg>
