<svg width="16" height="16" viewBox="0 0 16 16" fill="none" xmlns="http://www.w3.org/2000/svg">
    <path fill-rule="evenodd" clip-rule="evenodd" d="M0.492308 0C0.220414 0 0 0.220414 0 0.492308V4.71893C0 5.15752 0.530274 5.37718 0.840414 5.06705L5.06723 0.84043C5.37737 0.530297 5.15772 0 4.71912 0H0.492308Z" fill="#A9EAFC" />
    <path fill-rule="evenodd" clip-rule="evenodd" d="M2.21533 1.72302C1.94343 1.72302 1.72302 1.94343 1.72302 2.21533V14.523C1.72302 14.7949 1.94343 15.0153 2.21532 15.0153H10.5737C10.9696 15.0153 11.3497 14.8601 11.6323 14.5837L13.6577 12.2325L14.4037 12.8751L12.3656 15.2411C12.3576 15.2504 12.3493 15.2593 12.3407 15.2679C11.8723 15.7363 11.2366 15.9999 10.5737 15.9999H2.21532C1.39964 15.9999 0.738403 15.3387 0.738403 14.523V2.21533C0.738403 1.39964 1.39964 0.738403 2.21533 0.738403H12.0615C12.8772 0.738403 13.5384 1.39964 13.5384 2.21533V12.1945H12.5538V2.21533C12.5538 1.94343 12.3334 1.72302 12.0615 1.72302H2.21533Z" fill="#051766" />
    <path fill-rule="evenodd" clip-rule="evenodd" d="M14.8305 10.5089L14.414 10.0923L13.9962 10.5089H13.5385V10.9653L10.5796 13.9163L11.2758 14.6125L13.5385 12.3559V15.9243H15.0155V10.883L15.1102 10.7885L15.0155 10.6938V10.5089H14.8305Z" fill="white" />
    <path fill-rule="evenodd" clip-rule="evenodd" d="M10.0937 12.4554H4.18604V11.6677H10.0937V12.4554Z" fill="#051766" />
    <path fill-rule="evenodd" clip-rule="evenodd" d="M7.07533 4.03689C5.67016 4.03689 4.53066 5.17638 4.53066 6.58156C4.53066 7.98718 5.67019 9.12665 7.07533 9.12665C8.48131 9.12665 9.62042 7.98718 9.62042 6.58156C9.62042 5.17638 8.48135 4.03689 7.07533 4.03689ZM3.84143 6.58156C3.84143 4.79573 5.2895 3.34766 7.07533 3.34766C8.862 3.34766 10.3097 4.79573 10.3097 6.58156C10.3097 8.36777 8.86203 9.81588 7.07533 9.81588C5.28947 9.81588 3.84143 8.36777 3.84143 6.58156Z" fill="#051766" />
    <path fill-rule="evenodd" clip-rule="evenodd" d="M6.74359 3.55724C6.90495 3.65816 6.95395 3.87079 6.85303 4.03215L6.56085 3.84942C6.85303 4.03215 6.85311 4.03203 6.85318 4.03191L6.85324 4.03182L6.85124 4.03512C6.84918 4.03851 6.84573 4.04428 6.84102 4.05237C6.83159 4.06854 6.81713 4.09394 6.79878 4.12802C6.76207 4.19623 6.70993 4.29895 6.6514 4.43186C6.53417 4.6981 6.39244 5.08292 6.29709 5.55215C6.10685 6.48835 6.10149 7.75506 6.84007 9.09881C6.93175 9.26561 6.87085 9.47514 6.70406 9.56681C6.53727 9.65849 6.32774 9.59759 6.23606 9.4308C5.40108 7.91165 5.40712 6.47066 5.62166 5.4149C5.7287 4.88814 5.88771 4.45592 6.02062 4.1541C6.08716 4.00298 6.14744 3.88393 6.19188 3.80136C6.21412 3.76005 6.23242 3.72782 6.2456 3.70521C6.2522 3.6939 6.25751 3.68499 6.26141 3.67855L6.26616 3.67074L6.26771 3.66825L6.26826 3.66735L6.26849 3.66699C6.26858 3.66684 6.26867 3.66669 6.56085 3.84942L6.26867 3.66669C6.36959 3.50532 6.58222 3.45632 6.74359 3.55724ZM6.85324 4.03182C6.85339 4.03157 6.85345 4.03148 6.85342 4.03153L6.8533 4.03173L6.85324 4.03182Z" fill="#051766" />
    <path fill-rule="evenodd" clip-rule="evenodd" d="M7.4079 3.55724C7.56927 3.45632 7.78189 3.50532 7.88281 3.66669L7.59063 3.84942C7.88281 3.66669 7.8829 3.66684 7.883 3.66699L7.88322 3.66735L7.88378 3.66825L7.88532 3.67074L7.89008 3.67855C7.89397 3.68499 7.89929 3.6939 7.90588 3.70521C7.91907 3.72782 7.93737 3.76006 7.9596 3.80136C8.00405 3.88393 8.06432 4.00299 8.13086 4.1541C8.26376 4.45593 8.42276 4.88816 8.52977 5.41491C8.74426 6.47069 8.75019 7.91168 7.91498 9.43083C7.82329 9.59761 7.61375 9.65849 7.44697 9.56679C7.28019 9.4751 7.21932 9.26556 7.31101 9.09878C8.04979 7.75502 8.04453 6.48832 7.85434 5.55213C7.75902 5.08291 7.6173 4.69809 7.50007 4.43185C7.44155 4.29894 7.38941 4.19622 7.3527 4.12802C7.33436 4.09394 7.3199 4.06854 7.31047 4.05237C7.30576 4.04428 7.3023 4.03851 7.30025 4.03512L7.29845 4.03215L7.2983 4.03191C7.19758 3.87058 7.24662 3.65811 7.4079 3.55724ZM7.29807 4.03153L7.29819 4.03173L7.29824 4.03182C7.29812 4.03162 7.29806 4.03152 7.29806 4.03152L7.29807 4.03153Z" fill="#051766" />
    <path fill-rule="evenodd" clip-rule="evenodd" d="M4.33777 6.23706H9.65976V6.92629H4.33777V6.23706Z" fill="#051766" />
</svg>