<svg width="18" height="18" viewBox="0 0 18 18" fill="none" xmlns="http://www.w3.org/2000/svg">
<g id="Icon/Common/24x24/Close">
<path id="Oval" d="M18 9C18 13.9706 13.9706 18 9 18C4.02944 18 0 13.9706 0 9C0 4.02944 4.02944 0 9 0C13.9706 0 18 4.02944 18 9Z" fill="#E7EAF0"/>
<g id="x">
<path id="Line (Stroke)" fill-rule="evenodd" clip-rule="evenodd" d="M13.0302 13.0303C13.3231 12.7374 13.3231 12.2626 13.0302 11.9697L6.03022 4.96967C5.73732 4.67678 5.26245 4.67678 4.96956 4.96967C4.67666 5.26256 4.67666 5.73744 4.96956 6.03033L11.9696 13.0303C12.2624 13.3232 12.7373 13.3232 13.0302 13.0303Z" fill="#555555"/>
<path id="Line (Stroke)_2" fill-rule="evenodd" clip-rule="evenodd" d="M13.0303 4.96966C13.3232 5.26255 13.3232 5.73743 13.0303 6.03032L6.03033 13.0303C5.73744 13.3232 5.26256 13.3232 4.96967 13.0303C4.67678 12.7374 4.67678 12.2626 4.96967 11.9697L11.9697 4.96966C12.2626 4.67677 12.7374 4.67677 13.0303 4.96966Z" fill="#555555"/>
</g>
</g>
</svg>
