<svg width="42" height="42" viewBox="0 0 42 42" xmlns="http://www.w3.org/2000/svg" xmlns:xlink="http://www.w3.org/1999/xlink">
    <defs>
        <path id="sjd9i8vdfa" d="M0 0h26v23.886H0z"/>
    </defs>
    <g fill="none" fill-rule="evenodd">
        <path d="M0 0h42v42H0z"/>
        <rect fill="#FFEB00" width="42" height="42" rx="21"/>
        <g transform="translate(8 10)">
            <mask id="t0uc1n5ohb" fill="#fff">
                <use xlink:href="#sjd9i8vdfa"/>
            </mask>
            <path d="M13 0C5.82 0 0 4.6 0 10.277c0 3.695 2.466 6.932 6.167 8.744a635.874 635.874 0 0 0-1.127 4.247c-.176.707.259.698.544.507.223-.148 3.562-2.418 5.003-3.398.782.116 1.588.178 2.413.178 7.18 0 13-4.602 13-10.278S20.18 0 13 0" fill="#391B1B" mask="url(#t0uc1n5ohb)"/>
        </g>
        <path d="M15.769 17.25h-3.802a.647.647 0 1 0 0 1.293h1.236v4.555a.634.634 0 0 0 .63.63h.139a.63.63 0 0 0 .63-.63v-4.555h1.167a.647.647 0 1 0 0-1.293M24.905 22.512h-1.768v-4.65a.701.701 0 1 0-1.403 0v5.013c0 .038.005.075.011.112a.587.587 0 0 0 .576.7h2.584a.586.586 0 1 0 0-1.175M30.554 22.726l-1.97-2.588 1.78-1.78a.617.617 0 1 0-.874-.873l-2.203 2.203v-1.827a.701.701 0 1 0-1.403 0v5.168a.701.701 0 1 0 1.403 0v-1.595l.4-.4 1.864 2.445a.626.626 0 1 0 1.003-.753M17.52 21.216l.871-2.487c.01 0 .018.003.028.003l.87 2.484h-1.77zm3.69 1.678-1.895-5.183-.007-.006c-.121-.316-.47-.546-.887-.546-.463 0-.845.283-.921.653a.857.857 0 0 0-.037.085L15.6 22.894a.629.629 0 1 0 1.186.416l.322-.92h2.593l.323.92a.629.629 0 0 0 1.185-.416z" fill="#FAE300"/>
    </g>
</svg>
