<svg width="24" height="24" viewBox="0 0 24 24" fill="none" xmlns="http://www.w3.org/2000/svg">
<path d="M21 12C21 16.9706 16.9706 21 12 21C7.02944 21 3 16.9706 3 12C3 7.02944 7.02944 3 12 3C16.9706 3 21 7.02944 21 12Z" fill="#E7EAF0"/>
<path fill-rule="evenodd" clip-rule="evenodd" d="M16.0302 16.0303C16.3231 15.7374 16.3231 15.2626 16.0302 14.9697L9.03022 7.96967C8.73732 7.67678 8.26245 7.67678 7.96956 7.96967C7.67666 8.26256 7.67666 8.73744 7.96956 9.03033L14.9696 16.0303C15.2624 16.3232 15.7373 16.3232 16.0302 16.0303Z" fill="#555555"/>
<path fill-rule="evenodd" clip-rule="evenodd" d="M16.0303 7.96978C16.3232 8.26268 16.3232 8.73755 16.0303 9.03044L9.03033 16.0304C8.73744 16.3233 8.26256 16.3233 7.96967 16.0304C7.67678 15.7376 7.67678 15.2627 7.96967 14.9698L14.9697 7.96978C15.2626 7.67689 15.7374 7.67689 16.0303 7.96978Z" fill="#555555"/>
</svg>
